# xmcd
#
# Track frame offsets:
#	150
#	12368
#	26473
#	41583
#	53416
#	67026
#	81270
#	96099
#	111059
#	123666
#	138766
#	152000
#	165944
#	178851
#	194092
#	206486
#	221980
#	236425
#	250425
#	265965
#	281176
#
# Disc length: 3933 seconds
#
# Revision: 1
# Processed by: cddbd v1.5.2PL0 Copyright (c) Steve Scherf et al.
# Submitted via: audiograbber 1.83.01
#
DISCID=320f5b15
DTITLE=Louis Armstrong - the jazz...
DYEAR=2001
DGENRE=Jazz
TTITLE0=When the saints go marching in
TTITLE1=Tiger rag
TTITLE2=Georgia on my mind
TTITLE3=La cucaracha
TTITLE4=On the sunny side of the street
TTITLE5=Nobody knows the trouble I've seen
TTITLE6=West end blues
TTITLE7=Basin street blues
TTITLE8=Don't jive me
TTITLE9=Sugar foot strut
TTITLE10=No
TTITLE11=Fireworks
TTITLE12=Muggles
TTITLE13=Squeeze me
TTITLE14=Weather bird
TTITLE15=Heah me talkin'to ya?
TTITLE16=Symphonic raps
TTITLE17=Savoyager's stomp
TTITLE18=No one else but you
TTITLE19=Just a gigolo
TTITLE20=You, rascal you
EXTD=YEAR: 2001
EXTT0=
EXTT1=
EXTT2=
EXTT3=
EXTT4=
EXTT5=
EXTT6=
EXTT7=
EXTT8=
EXTT9=
EXTT10=
EXTT11=
EXTT12=
EXTT13=
EXTT14=
EXTT15=
EXTT16=
EXTT17=
EXTT18=
EXTT19=
EXTT20=
PLAYORDER=
